<svg width="50" height="100" viewBox="0 0 50 100" fill="none" xmlns="http://www.w3.org/2000/svg">
<path d="M16.2709 56.357C13.7889 56.357 11.5449 55.932 9.53894 55.082C7.56694 54.232 6.00294 53.008 4.84694 51.41C3.69094 49.812 3.09594 47.925 3.06194 45.749H10.7119C10.8139 47.211 11.3239 48.367 12.2419 49.217C13.1939 50.067 14.4859 50.492 16.1179 50.492C17.7839 50.492 19.0929 50.101 20.0449 49.319C20.9969 48.503 21.4729 47.449 21.4729 46.157C21.4729 45.103 21.1499 44.236 20.5039 43.556C19.8579 42.876 19.0419 42.349 18.0559 41.975C17.1039 41.567 15.7779 41.125 14.0779 40.649C11.7659 39.969 9.87894 39.306 8.41694 38.66C6.98894 37.98 5.74794 36.977 4.69394 35.651C3.67394 34.291 3.16394 32.489 3.16394 30.245C3.16394 28.137 3.69094 26.301 4.74494 24.737C5.79894 23.173 7.27794 21.983 9.18194 21.167C11.0859 20.317 13.2619 19.892 15.7099 19.892C19.3819 19.892 22.3569 20.793 24.6349 22.595C26.9469 24.363 28.2219 26.845 28.4599 30.041H20.6059C20.5379 28.817 20.0109 27.814 19.0249 27.032C18.0729 26.216 16.7979 25.808 15.1999 25.808C13.8059 25.808 12.6839 26.165 11.8339 26.879C11.0179 27.593 10.6099 28.63 10.6099 29.99C10.6099 30.942 10.9159 31.741 11.5279 32.387C12.1739 32.999 12.9559 33.509 13.8739 33.917C14.8259 34.291 16.1519 34.733 17.8519 35.243C20.1639 35.923 22.0509 36.603 23.5129 37.283C24.9749 37.963 26.2329 38.983 27.2869 40.343C28.3409 41.703 28.8679 43.488 28.8679 45.698C28.8679 47.602 28.3749 49.37 27.3889 51.002C26.4029 52.634 24.9579 53.943 23.0539 54.929C21.1499 55.881 18.8889 56.357 16.2709 56.357Z" fill="#222831"/>
<path d="M34.2709 79.357C31.7889 79.357 29.5449 78.932 27.5389 78.082C25.5669 77.232 24.0029 76.008 22.8469 74.41C21.6909 72.812 21.0959 70.925 21.0619 68.749H28.7119C28.8139 70.211 29.3239 71.367 30.2419 72.217C31.1939 73.067 32.4859 73.492 34.1179 73.492C35.7839 73.492 37.0929 73.101 38.0449 72.319C38.9969 71.503 39.4729 70.449 39.4729 69.157C39.4729 68.103 39.1499 67.236 38.5039 66.556C37.8579 65.876 37.0419 65.349 36.0559 64.975C35.1039 64.567 33.7779 64.125 32.0779 63.649C29.7659 62.969 27.8789 62.306 26.4169 61.66C24.9889 60.98 23.7479 59.977 22.6939 58.651C21.6739 57.291 21.1639 55.489 21.1639 53.245C21.1639 51.137 21.6909 49.301 22.7449 47.737C23.7989 46.173 25.2779 44.983 27.1819 44.167C29.0859 43.317 31.2619 42.892 33.7099 42.892C37.3819 42.892 40.3569 43.793 42.6349 45.595C44.9469 47.363 46.2219 49.845 46.4599 53.041H38.6059C38.5379 51.817 38.0109 50.814 37.0249 50.032C36.0729 49.216 34.7979 48.808 33.1999 48.808C31.8059 48.808 30.6839 49.165 29.8339 49.879C29.0179 50.593 28.6099 51.63 28.6099 52.99C28.6099 53.942 28.9159 54.741 29.5279 55.387C30.1739 55.999 30.9559 56.509 31.8739 56.917C32.8259 57.291 34.1519 57.733 35.8519 58.243C38.1639 58.923 40.0509 59.603 41.5129 60.283C42.9749 60.963 44.2329 61.983 45.2869 63.343C46.3409 64.703 46.8679 66.488 46.8679 68.698C46.8679 70.602 46.3749 72.37 45.3889 74.002C44.4029 75.634 42.9579 76.943 41.0539 77.929C39.1499 78.881 36.8889 79.357 34.2709 79.357Z" fill="#222831"/>
</svg>
